<svg id="Capa_1" data-name="Capa 1" xmlns="http://www.w3.org/2000/svg" xmlns:xlink="http://www.w3.org/1999/xlink" viewBox="0 0 373.29 171.73"><defs><style>.cls-1{fill:url(#Degradado_sin_nombre_12);}.cls-2{font-size:144.09px;fill:#1d1c1c;}.cls-10,.cls-2,.cls-5{font-family:FARRAY-Regular, FARRAY;}.cls-3{fill:#201d1e;}.cls-4{fill:#252525;}.cls-10,.cls-5{font-size:30px;fill:#4b4a4c;}.cls-6{letter-spacing:-0.03em;}.cls-7{letter-spacing:-0.02em;}.cls-8{letter-spacing:-0.08em;}.cls-9{letter-spacing:-0.02em;}.cls-10{letter-spacing:-0.06em;}.cls-11{letter-spacing:0em;}</style><radialGradient id="Degradado_sin_nombre_12" cx="198.02" cy="351.31" r="79.39" gradientUnits="userSpaceOnUse"><stop offset="0" stop-color="#c2384f"/><stop offset="0" stop-color="#c3b321"/><stop offset="1" stop-color="#d49831"/></radialGradient></defs><title>Logos</title><path class="cls-1" d="M159,269c-1.64-1.64-17.32-2.72-17.71-2-.12.24-4.39-.14-4.64,0a25,25,0,0,1-3,0c-.56,0-3.5.06-4.1.09a28.81,28.81,0,0,0-3.84.09L126.55,389l.28,3.71s2.2,4.05,10.07,10.05A302.9,302.9,0,0,0,168.31,424c17.7,10.19,34.19,16.53,46.38,11.35,0,0,8.87-4.55,16.95-9.71a241.37,241.37,0,0,0,30.57-22.55,48.5,48.5,0,0,0,8.14-10V265.44s-1,.25-6.43.14c-4.27-.09-10.69-.27-16.4,0-6,.31-12.91,4.52-19.83,10.26-10.63,8.82-25.17,9.9-37.61,8.11-2.93-.42-5.56-.52-8.25-1.15a46.1,46.1,0,0,1-8-3A26.33,26.33,0,0,1,167,276s-4.34-5-9-7.56" transform="translate(-119.94 -265.44)"/><text class="cls-2" transform="translate(125.34 144.66) rotate(-91.4) scale(1.02 1)">C</text><polygon class="cls-3" points="63.2 46.34 62.35 86.41 69.42 86.41 69.42 63.7 72.08 66.38 72.08 55.98 63.2 46.34"/><polygon class="cls-4" points="74.2 57.48 74.2 67.13 77.85 71.84 86.53 63.48 86.53 85.98 93.28 85.98 93.28 46.77 77.85 60.7 74.2 57.48"/><text class="cls-5" transform="translate(167.92 66.34)"><tspan class="cls-6">C</tspan><tspan class="cls-7" x="23.46" y="0">R</tspan><tspan x="45.51" y="0">E</tspan><tspan class="cls-8" x="67.29" y="0">A</tspan><tspan x="85.92" y="0">TI</tspan><tspan class="cls-9" x="123.27" y="0">V</tspan><tspan x="141.84" y="0">E</tspan></text><text class="cls-10" transform="translate(268.92 112.34)">M<tspan class="cls-11" x="22.02" y="0">INDS</tspan></text></svg>